<svg viewBox="0 0 40 40" xmlns="http://www.w3.org/2000/svg" class="default_cursor_cs"><path d="M7.73 5.58a128.76 128.76 0 0 1 9 12.29c-1.27-3.42-4.41-10.53-9-12.29ZM14.57 8.66A84 84 0 0 1 18 22.86a29.72 29.72 0 0 0-.46-10.55 6.06 6.06 0 0 0-2.92-3.65Z" fill="#00c8de" class="fill-000000 default_cursor_cs"></path><path d="M19.79 11.59a58.28 58.28 0 0 1-2.45 14.85c2.89-3.71 5.15-8.07 5.15-11.2 0-1.64-1.17-2.78-2.7-3.65Z" fill="#00c8de" class="fill-000000 default_cursor_cs"></path><path d="M24.88 15.11c-2.39 5.64-7.77 12.66-10.72 15.74 4.16-2.85 10.22-8.3 12.26-11.25a3 3 0 0 0 .84-1.82c0-1.19-1.38-2.06-2.38-2.67Z" fill="#00c8de" class="fill-000000 default_cursor_cs"></path><path d="M29.24 18.76c-5.35 5.57-16 13.92-21.35 16.82 6.76-2.26 16.55-7.53 23.36-12.23.57-.39 1-.76 1-1.4 0-1.11-2-2.6-3-3.19Z" fill="#00c8de" class="fill-000000 default_cursor_cs"></path></svg>